# Tiled2Unity generated file. Do not modify by hand.
# Wavefront file for 'ejemplo2_mesh_0001.obj'

# Vertices (Count = 304)
v -112 -128 0
v -128 -128 0
v -128 -112 0
v -112 -112 0
v -128 -128 0
v -144 -128 0
v -144 -112 0
v -128 -112 0
v -144 -128 0
v -160 -128 0
v -160 -112 0
v -144 -112 0
v -160 -128 0
v -176 -128 0
v -176 -112 0
v -160 -112 0
v -64 -144 0
v -80 -144 0
v -80 -128 0
v -64 -128 0
v -80 -144 0
v -96 -144 0
v -96 -128 0
v -80 -128 0
v -96 -144 0
v -112 -144 0
v -112 -128 0
v -96 -128 0
v -112 -144 0
v -128 -144 0
v -128 -128 0
v -112 -128 0
v -128 -144 0
v -144 -144 0
v -144 -128 0
v -128 -128 0
v -144 -144 0
v -160 -144 0
v -160 -128 0
v -144 -128 0
v -160 -144 0
v -176 -144 0
v -176 -128 0
v -160 -128 0
v -176 -144 0
v -192 -144 0
v -192 -128 0
v -176 -128 0
v -64 -160 0
v -80 -160 0
v -80 -144 0
v -64 -144 0
v -80 -160 0
v -96 -160 0
v -96 -144 0
v -80 -144 0
v -96 -160 0
v -112 -160 0
v -112 -144 0
v -96 -144 0
v -112 -160 0
v -128 -160 0
v -128 -144 0
v -112 -144 0
v -128 -160 0
v -144 -160 0
v -144 -144 0
v -128 -144 0
v -144 -160 0
v -160 -160 0
v -160 -144 0
v -144 -144 0
v -160 -160 0
v -176 -160 0
v -176 -144 0
v -160 -144 0
v -176 -160 0
v -192 -160 0
v -192 -144 0
v -176 -144 0
v -64 -176 0
v -80 -176 0
v -80 -160 0
v -64 -160 0
v -80 -176 0
v -96 -176 0
v -96 -160 0
v -80 -160 0
v -96 -176 0
v -112 -176 0
v -112 -160 0
v -96 -160 0
v -112 -176 0
v -128 -176 0
v -128 -160 0
v -112 -160 0
v -128 -176 0
v -144 -176 0
v -144 -160 0
v -128 -160 0
v -144 -176 0
v -160 -176 0
v -160 -160 0
v -144 -160 0
v -160 -176 0
v -176 -176 0
v -176 -160 0
v -160 -160 0
v -176 -176 0
v -192 -176 0
v -192 -160 0
v -176 -160 0
v -64 -192 0
v -80 -192 0
v -80 -176 0
v -64 -176 0
v -80 -192 0
v -96 -192 0
v -96 -176 0
v -80 -176 0
v -96 -192 0
v -112 -192 0
v -112 -176 0
v -96 -176 0
v -112 -192 0
v -128 -192 0
v -128 -176 0
v -112 -176 0
v -128 -192 0
v -144 -192 0
v -144 -176 0
v -128 -176 0
v -144 -192 0
v -160 -192 0
v -160 -176 0
v -144 -176 0
v -160 -192 0
v -176 -192 0
v -176 -176 0
v -160 -176 0
v -176 -192 0
v -192 -192 0
v -192 -176 0
v -176 -176 0
v -64 -208 0
v -80 -208 0
v -80 -192 0
v -64 -192 0
v -80 -208 0
v -96 -208 0
v -96 -192 0
v -80 -192 0
v -96 -208 0
v -112 -208 0
v -112 -192 0
v -96 -192 0
v -112 -208 0
v -128 -208 0
v -128 -192 0
v -112 -192 0
v -128 -208 0
v -144 -208 0
v -144 -192 0
v -128 -192 0
v -144 -208 0
v -160 -208 0
v -160 -192 0
v -144 -192 0
v -160 -208 0
v -176 -208 0
v -176 -192 0
v -160 -192 0
v -176 -208 0
v -192 -208 0
v -192 -192 0
v -176 -192 0
v -752 -208 0
v -768 -208 0
v -768 -192 0
v -752 -192 0
v -768 -208 0
v -784 -208 0
v -784 -192 0
v -768 -192 0
v -784 -208 0
v -800 -208 0
v -800 -192 0
v -784 -192 0
v -800 -208 0
v -816 -208 0
v -816 -192 0
v -800 -192 0
v -1184 -208 0
v -1200 -208 0
v -1200 -192 0
v -1184 -192 0
v -1200 -208 0
v -1216 -208 0
v -1216 -192 0
v -1200 -192 0
v -1216 -208 0
v -1232 -208 0
v -1232 -192 0
v -1216 -192 0
v -1232 -208 0
v -1248 -208 0
v -1248 -192 0
v -1232 -192 0
v -64 -224 0
v -80 -224 0
v -80 -208 0
v -64 -208 0
v -80 -224 0
v -96 -224 0
v -96 -208 0
v -80 -208 0
v -96 -224 0
v -112 -224 0
v -112 -208 0
v -96 -208 0
v -112 -224 0
v -128 -224 0
v -128 -208 0
v -112 -208 0
v -128 -224 0
v -144 -224 0
v -144 -208 0
v -128 -208 0
v -144 -224 0
v -160 -224 0
v -160 -208 0
v -144 -208 0
v -160 -224 0
v -176 -224 0
v -176 -208 0
v -160 -208 0
v -176 -224 0
v -192 -224 0
v -192 -208 0
v -176 -208 0
v -752 -224 0
v -768 -224 0
v -768 -208 0
v -752 -208 0
v -768 -224 0
v -784 -224 0
v -784 -208 0
v -768 -208 0
v -784 -224 0
v -800 -224 0
v -800 -208 0
v -784 -208 0
v -800 -224 0
v -816 -224 0
v -816 -208 0
v -800 -208 0
v -1184 -224 0
v -1200 -224 0
v -1200 -208 0
v -1184 -208 0
v -1200 -224 0
v -1216 -224 0
v -1216 -208 0
v -1200 -208 0
v -1216 -224 0
v -1232 -224 0
v -1232 -208 0
v -1216 -208 0
v -1232 -224 0
v -1248 -224 0
v -1248 -208 0
v -1232 -208 0
v -752 -240 0
v -768 -240 0
v -768 -224 0
v -752 -224 0
v -768 -240 0
v -784 -240 0
v -784 -224 0
v -768 -224 0
v -784 -240 0
v -800 -240 0
v -800 -224 0
v -784 -224 0
v -800 -240 0
v -816 -240 0
v -816 -224 0
v -800 -224 0
v -1184 -240 0
v -1200 -240 0
v -1200 -224 0
v -1184 -224 0
v -1200 -240 0
v -1216 -240 0
v -1216 -224 0
v -1200 -224 0
v -1216 -240 0
v -1232 -240 0
v -1232 -224 0
v -1216 -224 0
v -1232 -240 0
v -1248 -240 0
v -1248 -224 0
v -1232 -224 0

# Texture cooridinates (Count = 88)
vt 0.2586207 0.8
vt 0.2758621 0.8
vt 0.2758621 0.85
vt 0.2586207 0.85
vt 0.2931035 0.8
vt 0.2931035 0.85
vt 0.3103448 0.8
vt 0.3103448 0.85
vt 0.3275862 0.8
vt 0.3275862 0.85
vt 0.2068966 0.75
vt 0.2241379 0.75
vt 0.2241379 0.8
vt 0.2068966 0.8
vt 0.2413793 0.75
vt 0.2413793 0.8
vt 0.2586207 0.75
vt 0.2758621 0.75
vt 0.2931035 0.75
vt 0.3103448 0.75
vt 0.3275862 0.75
vt 0.3448276 0.75
vt 0.3448276 0.8
vt 0.2068966 0.7
vt 0.2241379 0.7
vt 0.2413793 0.7
vt 0.2586207 0.7
vt 0.2758621 0.7
vt 0.2931035 0.7
vt 0.3103448 0.7
vt 0.3275862 0.7
vt 0.3448276 0.7
vt 0.2068966 0.65
vt 0.2241379 0.65
vt 0.2413793 0.65
vt 0.2586207 0.65
vt 0.2758621 0.65
vt 0.2931035 0.65
vt 0.3103448 0.65
vt 0.3275862 0.65
vt 0.3448276 0.65
vt 0.2068966 0.6
vt 0.2241379 0.6
vt 0.2413793 0.6
vt 0.2586207 0.6
vt 0.2758621 0.6
vt 0.2931035 0.6
vt 0.3103448 0.6
vt 0.3275862 0.6
vt 0.3448276 0.6
vt 0.2068966 0.55
vt 0.2241379 0.55
vt 0.2413793 0.55
vt 0.2586207 0.55
vt 0.2758621 0.55
vt 0.2931035 0.55
vt 0.3103448 0.55
vt 0.3275862 0.55
vt 0.3448276 0.55
vt 0.5862069 0.65
vt 0.6034483 0.65
vt 0.6034483 0.7
vt 0.5862069 0.7
vt 0.6206896 0.65
vt 0.6206896 0.7
vt 0.637931 0.65
vt 0.637931 0.7
vt 0.6551724 0.65
vt 0.6551724 0.7
vt 0.2068966 0.5
vt 0.2241379 0.5
vt 0.2413793 0.5
vt 0.2586207 0.5
vt 0.2758621 0.5
vt 0.2931035 0.5
vt 0.3103448 0.5
vt 0.3275862 0.5
vt 0.3448276 0.5
vt 0.5862069 0.6
vt 0.6034483 0.6
vt 0.6206896 0.6
vt 0.637931 0.6
vt 0.6551724 0.6
vt 0.5862069 0.55
vt 0.6034483 0.55
vt 0.6206896 0.55
vt 0.637931 0.55
vt 0.6551724 0.55

# Normal
vn 0 0 -1

# Mesh description
g ejemplo2_mesh_0001

# Faces
f 1/1/1 2/2/1 3/3/1 4/4/1
f 5/2/1 6/5/1 7/6/1 8/3/1
f 9/5/1 10/7/1 11/8/1 12/6/1
f 13/7/1 14/9/1 15/10/1 16/8/1
f 17/11/1 18/12/1 19/13/1 20/14/1
f 21/12/1 22/15/1 23/16/1 24/13/1
f 25/15/1 26/17/1 27/1/1 28/16/1
f 29/17/1 30/18/1 31/2/1 32/1/1
f 33/18/1 34/19/1 35/5/1 36/2/1
f 37/19/1 38/20/1 39/7/1 40/5/1
f 41/20/1 42/21/1 43/9/1 44/7/1
f 45/21/1 46/22/1 47/23/1 48/9/1
f 49/24/1 50/25/1 51/12/1 52/11/1
f 53/25/1 54/26/1 55/15/1 56/12/1
f 57/26/1 58/27/1 59/17/1 60/15/1
f 61/27/1 62/28/1 63/18/1 64/17/1
f 65/28/1 66/29/1 67/19/1 68/18/1
f 69/29/1 70/30/1 71/20/1 72/19/1
f 73/30/1 74/31/1 75/21/1 76/20/1
f 77/31/1 78/32/1 79/22/1 80/21/1
f 81/33/1 82/34/1 83/25/1 84/24/1
f 85/34/1 86/35/1 87/26/1 88/25/1
f 89/35/1 90/36/1 91/27/1 92/26/1
f 93/36/1 94/37/1 95/28/1 96/27/1
f 97/37/1 98/38/1 99/29/1 100/28/1
f 101/38/1 102/39/1 103/30/1 104/29/1
f 105/39/1 106/40/1 107/31/1 108/30/1
f 109/40/1 110/41/1 111/32/1 112/31/1
f 113/42/1 114/43/1 115/34/1 116/33/1
f 117/43/1 118/44/1 119/35/1 120/34/1
f 121/44/1 122/45/1 123/36/1 124/35/1
f 125/45/1 126/46/1 127/37/1 128/36/1
f 129/46/1 130/47/1 131/38/1 132/37/1
f 133/47/1 134/48/1 135/39/1 136/38/1
f 137/48/1 138/49/1 139/40/1 140/39/1
f 141/49/1 142/50/1 143/41/1 144/40/1
f 145/51/1 146/52/1 147/43/1 148/42/1
f 149/52/1 150/53/1 151/44/1 152/43/1
f 153/53/1 154/54/1 155/45/1 156/44/1
f 157/54/1 158/55/1 159/46/1 160/45/1
f 161/55/1 162/56/1 163/47/1 164/46/1
f 165/56/1 166/57/1 167/48/1 168/47/1
f 169/57/1 170/58/1 171/49/1 172/48/1
f 173/58/1 174/59/1 175/50/1 176/49/1
f 177/60/1 178/61/1 179/62/1 180/63/1
f 181/61/1 182/64/1 183/65/1 184/62/1
f 185/64/1 186/66/1 187/67/1 188/65/1
f 189/66/1 190/68/1 191/69/1 192/67/1
f 193/60/1 194/61/1 195/62/1 196/63/1
f 197/61/1 198/64/1 199/65/1 200/62/1
f 201/64/1 202/66/1 203/67/1 204/65/1
f 205/66/1 206/68/1 207/69/1 208/67/1
f 209/70/1 210/71/1 211/52/1 212/51/1
f 213/71/1 214/72/1 215/53/1 216/52/1
f 217/72/1 218/73/1 219/54/1 220/53/1
f 221/73/1 222/74/1 223/55/1 224/54/1
f 225/74/1 226/75/1 227/56/1 228/55/1
f 229/75/1 230/76/1 231/57/1 232/56/1
f 233/76/1 234/77/1 235/58/1 236/57/1
f 237/77/1 238/78/1 239/59/1 240/58/1
f 241/79/1 242/80/1 243/61/1 244/60/1
f 245/80/1 246/81/1 247/64/1 248/61/1
f 249/81/1 250/82/1 251/66/1 252/64/1
f 253/82/1 254/83/1 255/68/1 256/66/1
f 257/79/1 258/80/1 259/61/1 260/60/1
f 261/80/1 262/81/1 263/64/1 264/61/1
f 265/81/1 266/82/1 267/66/1 268/64/1
f 269/82/1 270/83/1 271/68/1 272/66/1
f 273/84/1 274/85/1 275/80/1 276/79/1
f 277/85/1 278/86/1 279/81/1 280/80/1
f 281/86/1 282/87/1 283/82/1 284/81/1
f 285/87/1 286/88/1 287/83/1 288/82/1
f 289/84/1 290/85/1 291/80/1 292/79/1
f 293/85/1 294/86/1 295/81/1 296/80/1
f 297/86/1 298/87/1 299/82/1 300/81/1
f 301/87/1 302/88/1 303/83/1 304/82/1

